# xmcd
#
# Track frame offsets:
#	150
#	14449
#	32511
#	60353
#	83979
#	108099
#	128999
#	147441
#	168077
#	177795
#	200381
#	217665
#
# Disc length: 3116 seconds
#
# Revision: 1
# Processed by: cddbd v1.5.1PL0 Copyright (c) Steve Scherf et al.
# Submitted via: audiograbber 1.81.02
#
DISCID=930c2a0c
DTITLE=Mississippi Barry - Swamp Doo Aloha
DYEAR=1996
DGENRE=Blues
TTITLE0=d-stroyer
TTITLE1=truck stop girl
TTITLE2=there's an ill wind that blows
TTITLE3=dead sheep
TTITLE4=armageddon nothing
TTITLE5=there's an angel watching over you
TTITLE6=next time you hear from me
TTITLE7=men in chaps
TTITLE8=jaws' blues
TTITLE9=appeasement
TTITLE10=cafe forlorn
TTITLE11=as night falls
EXTD=Australian
EXTT0=
EXTT1=
EXTT2=
EXTT3=
EXTT4=
EXTT5=
EXTT6=
EXTT7=
EXTT8=
EXTT9=
EXTT10=
EXTT11=
PLAYORDER=
